Mutua.ufo
<glyph name="one" format="2">
	<advance width="447"/>
	<unicode hex="0031"/>
	<outline>
		<contour>
			<point x="364" y="756" type="line"/>
			<point x="234" y="756" type="line"/>
			<point x="234" y="0" type="line"/>
			<point x="364" y="0" type="line"/>
		</contour>
		<contour>
			<point x="234" y="756" type="line"/>
			<point x="211" y="685"/>
			<point x="139" y="645"/>
			<point x="35" y="645" type="curve"/>
			<point x="35" y="522" type="line"/>
			<point x="134" y="522"/>
			<point x="205" y="538"/>
			<point x="234" y="568" type="curve"/>
		</contour>
	</outline>
</glyph>
<glyph name="three" format="2">
	<advance width="710"/>
	<unicode hex="0033"/>
	<outline>
		<contour>
			<point x="89" y="148" type="curve"/>
			<point x="89" y="20" type="line"/>
			<point x="196" y="-7"/>
			<point x="271" y="-10"/>
			<point x="349" y="-10" type="curve" smooth="yes"/>
			<point x="553" y="-10"/>
			<point x="642" y="53"/>
			<point x="642" y="196" type="curve"/>
			<point x="642" y="264" type="line"/>
			<point x="642" y="379"/>
			<point x="585" y="443"/>
			<point x="482" y="443" type="curve" smooth="yes"/>
			<point x="359" y="443" type="line"/>
			<point x="374" y="404" type="line"/>
			<point x="625" y="614" type="line"/>
			<point x="625" y="756" type="line"/>
			<point x="86" y="756" type="line"/>
			<point x="86" y="631" type="line"/>
			<point x="460" y="631" type="line"/>
			<point x="459" y="614" type="line"/>
			<point x="218" y="421" type="line"/>
			<point x="218" y="344" type="line"/>
			<point x="429" y="344" type="line"/>
			<point x="491" y="344"/>
			<point x="514" y="321"/>
			<point x="514" y="270" type="curve" smooth="yes"/>
			<point x="514" y="216" type="line" smooth="yes"/>
			<point x="514" y="147"/>
			<point x="458" y="117"/>
			<point x="321" y="117" type="curve" smooth="yes"/>
			<point x="243" y="117"/>
			<point x="188" y="122"/>
		</contour>
	</outline>
</glyph>
<glyph name="four" format="2">
	<advance width="733"/>
	<unicode hex="0034"/>
	<outline>
		<contour>
			<point x="595" y="756" type="line"/>
			<point x="465" y="756" type="line"/>
			<point x="465" y="0" type="line"/>
			<point x="595" y="0" type="line"/>
		</contour>
		<contour>
			<point x="405" y="756" type="line"/>
			<point x="34" y="281" type="line"/>
			<point x="270" y="281" type="line"/>
			<point x="171" y="246" type="line"/>
			<point x="555" y="756" type="line"/>
		</contour>
		<contour>
			<point x="34" y="281" type="line"/>
			<point x="34" y="176" type="line"/>
			<point x="713" y="176" type="line"/>
			<point x="713" y="291" type="line"/>
		</contour>
	</outline>
</glyph>
<glyph name="five" format="2">
	<advance width="709"/>
	<unicode hex="0035"/>
	<outline>
		<contour>
			<point x="51" y="342" type="line"/>
			<point x="187" y="342" type="line"/>
			<point x="202" y="629" type="line"/>
			<point x="581" y="629" type="line"/>
			<point x="581" y="756" type="line"/>
			<point x="76" y="756" type="line"/>
		</contour>
		<contour>
			<point x="185" y="461" type="line"/>
			<point x="185" y="342" type="line"/>
			<point x="399" y="342" type="line"/>
			<point x="450" y="342"/>
			<point x="473" y="325"/>
			<point x="473" y="274" type="curve" smooth="yes"/>
			<point x="473" y="213" type="line" smooth="yes"/>
			<point x="473" y="134"/>
			<point x="420" y="125"/>
			<point x="299" y="125" type="curve" smooth="yes"/>
			<point x="223" y="125"/>
			<point x="119" y="137"/>
			<point x="50" y="150" type="curve"/>
			<point x="51" y="25" type="line"/>
			<point x="150" y="5"/>
			<point x="219" y="0"/>
			<point x="327" y="0" type="curve" smooth="yes"/>
			<point x="524" y="0"/>
			<point x="610" y="51"/>
			<point x="610" y="202" type="curve" smooth="yes"/>
			<point x="610" y="297" type="line" smooth="yes"/>
			<point x="610" y="412"/>
			<point x="547" y="461"/>
			<point x="427" y="461" type="curve"/>
		</contour>
	</outline>
</glyph>
<glyph name="nine" format="2">
	<advance width="716"/>
	<unicode hex="0039"/>
	<outline>
		<contour>
			<point x="505" y="557" type="curve"/>
			<point x="505" y="463" type="line" smooth="yes"/>
			<point x="505" y="417"/>
			<point x="465" y="385"/>
			<point x="391" y="385" type="curve" smooth="yes"/>
			<point x="266" y="385" type="line" smooth="yes"/>
			<point x="214" y="385"/>
			<point x="192" y="412"/>
			<point x="192" y="459" type="curve" smooth="yes"/>
			<point x="191" y="557" type="line" smooth="yes"/>
			<point x="191" y="604"/>
			<point x="214" y="631"/>
			<point x="265" y="631" type="curve" smooth="yes"/>
			<point x="431" y="631" type="line" smooth="yes"/>
			<point x="482" y="631"/>
			<point x="505" y="604"/>
		</contour>
		<contour>
			<point x="641" y="521" type="line" smooth="yes"/>
			<point x="641" y="691"/>
			<point x="562" y="756"/>
			<point x="396" y="756" type="curve" smooth="yes"/>
			<point x="253" y="756" type="line" smooth="yes"/>
			<point x="143" y="756"/>
			<point x="70" y="697"/>
			<point x="70" y="596" type="curve" smooth="yes"/>
			<point x="70" y="421" type="line" smooth="yes"/>
			<point x="70" y="318"/>
			<point x="133" y="260"/>
			<point x="283" y="260" type="curve" smooth="yes"/>
			<point x="367" y="260" type="line" smooth="yes"/>
			<point x="420" y="260"/>
			<point x="481" y="278"/>
			<point x="530" y="316" type="curve"/>
			<point x="505" y="363" type="line"/>
			<point x="503" y="205"/>
			<point x="412" y="117"/>
			<point x="275" y="117" type="curve" smooth="yes"/>
			<point x="235" y="117"/>
			<point x="172" y="121"/>
			<point x="126" y="129" type="curve"/>
			<point x="126" y="2" type="line"/>
			<point x="158" y="-4"/>
			<point x="221" y="-10"/>
			<point x="270" y="-10" type="curve" smooth="yes"/>
			<point x="430" y="-10"/>
			<point x="641" y="82"/>
			<point x="641" y="385" type="curve" smooth="yes"/>
		</contour>
	</outline>
</glyph>
<glyph name="H" format="2">
	<advance width="786"/>
	<unicode hex="0048"/>
	<outline>
		<contour>
			<point x="213" y="756" type="line"/>
			<point x="83" y="756" type="line"/>
			<point x="83" y="0" type="line"/>
			<point x="213" y="0" type="line"/>
		</contour>
		<contour>
			<point x="703" y="756" type="line"/>
			<point x="573" y="756" type="line"/>
			<point x="573" y="0" type="line"/>
			<point x="703" y="0" type="line"/>
		</contour>
		<contour>
			<point x="169" y="448" type="line"/>
			<point x="169" y="321" type="line"/>
			<point x="612" y="321" type="line"/>
			<point x="612" y="448" type="line"/>
		</contour>
	</outline>
</glyph>
<glyph name="I" format="2">
	<advance width="652"/>
	<unicode hex="0049"/>
	<outline>
		<contour>
			<point x="576" y="755" type="line"/>
			<point x="76" y="755" type="line"/>
			<point x="76" y="635" type="line"/>
			<point x="305" y="635" type="line"/>
			<point x="260" y="680" type="line"/>
			<point x="260" y="75" type="line"/>
			<point x="305" y="120" type="line"/>
			<point x="76" y="120" type="line"/>
			<point x="76" y="0" type="line"/>
			<point x="576" y="0" type="line"/>
			<point x="576" y="120" type="line"/>
			<point x="345" y="120" type="line"/>
			<point x="390" y="75" type="line"/>
			<point x="390" y="680" type="line"/>
			<point x="345" y="635" type="line"/>
			<point x="576" y="635" type="line"/>
		</contour>
	</outline>
</glyph>
<glyph name="M" format="2">
	<advance width="981"/>
	<unicode hex="004D"/>
	<guideline x="287" y="630" angle="0"/>
	<outline>
		<contour>
			<point x="83" y="-1" type="line"/>
			<point x="197" y="-1" type="line"/>
			<point x="236" y="675" type="line"/>
			<point x="188" y="630" type="line"/>
			<point x="287" y="630" type="line"/>
			<point x="227" y="674" type="line"/>
			<point x="383" y="43" type="line"/>
			<point x="590" y="43" type="line"/>
			<point x="735" y="674" type="line"/>
			<point x="680" y="630" type="line"/>
			<point x="778" y="630" type="line"/>
			<point x="737" y="675" type="line"/>
			<point x="773" y="0" type="line"/>
			<point x="898" y="0" type="line"/>
			<point x="860" y="756" type="line"/>
			<point x="653" y="756" type="line"/>
			<point x="492" y="133" type="line"/>
			<point x="548" y="177" type="line"/>
			<point x="441" y="177" type="line"/>
			<point x="498" y="134" type="line"/>
			<point x="326" y="756" type="line"/>
			<point x="120" y="756" type="line"/>
		</contour>
	</outline>
</glyph>
<glyph name="Q" format="2">
	<advance width="854"/>
	<unicode hex="0051"/>
	<outline>
		<contour>
			<point x="601" y="94" type="line"/>
			<point x="466" y="94" type="line"/>
			<point x="555" y="-106" type="line"/>
			<point x="702" y="-106" type="line"/>
		</contour>
		<component base="O"/>
	</outline>
</glyph>
<glyph name="S" format="2">
	<advance width="693"/>
	<unicode hex="0053"/>
	<guideline x="-824" y="0" angle="0"/>
	<outline>
		<contour>
			<point x="616.398" y="529.289" type="line"/>
			<point x="616.398" y="529.289"/>
			<point x="615.51" y="599.204"/>
			<point x="615.51" y="598.272" type="curve"/>
			<point x="615.51" y="708.271"/>
			<point x="539.181" y="758.316"/>
			<point x="435.354" y="756" type="curve" smooth="yes"/>
			<point x="274.95" y="752.423" type="line" smooth="yes"/>
			<point x="168.46" y="750.048"/>
			<point x="90.3875" y="692.111"/>
			<point x="92.9034" y="559.999" type="curve"/>
			<point x="92.9034" y="559.999"/>
			<point x="92.9034" y="519.145"/>
			<point x="92.9034" y="472.535" type="curve" smooth="yes"/>
			<point x="92.9034" y="431.84"/>
			<point x="123.719" y="403.144"/>
			<point x="168.217" y="388.68" type="curve" smooth="yes"/>
			<point x="168.217" y="388.68"/>
			<point x="436.859" y="291.013"/>
			<point x="462.757" y="282.507" type="curve" smooth="yes"/>
			<point x="480.421" y="276.705"/>
			<point x="495.362" y="270.081"/>
			<point x="495.362" y="248.464" type="curve"/>
			<point x="495.362" y="248.464"/>
			<point x="495.497" y="193.067"/>
			<point x="495.497" y="193.067" type="curve"/>
			<point x="494.609" y="136.203"/>
			<point x="485.71" y="116.782"/>
			<point x="426.336" y="116.782" type="curve"/>
			<point x="419.814" y="116.782"/>
			<point x="305.118" y="116.782"/>
			<point x="245.964" y="117.145" type="curve"/>
			<point x="224.083" y="117.279"/>
			<point x="209.87" y="122.149"/>
			<point x="209.87" y="155.729" type="curve"/>
			<point x="209.87" y="228.188" type="line"/>
			<point x="209.87" y="228.188"/>
			<point x="88.6035" y="228.188"/>
			<point x="88.6035" y="228.188" type="curve"/>
			<point x="90.7122" y="141.963" type="line" smooth="yes"/>
			<point x="92.7177" y="59.9567"/>
			<point x="172.039" y="-0.2942"/>
			<point x="271.452" y="-0.2006" type="curve" smooth="yes"/>
			<point x="469.462" y="-0.0142" type="line" smooth="yes"/>
			<point x="573.554" y="0.0838"/>
			<point x="611.108" y="60.7785"/>
			<point x="614.937" y="155.66" type="curve" smooth="yes"/>
			<point x="619.212" y="261.607" type="line" smooth="yes"/>
			<point x="621.364" y="314.918"/>
			<point x="590.4" y="360.197"/>
			<point x="527.272" y="379.566" type="curve" smooth="yes"/>
			<point x="527.272" y="379.566"/>
			<point x="243.215" y="487.447"/>
			<point x="243.215" y="487.447" type="curve" smooth="yes"/>
			<point x="223.632" y="494.77"/>
			<point x="215.688" y="500.455"/>
			<point x="215.814" y="518.914" type="curve" smooth="yes"/>
			<point x="215.903" y="531.991"/>
			<point x="215.631" y="546.599"/>
			<point x="216.14" y="550.88" type="curve"/>
			<point x="216.14" y="619.681"/>
			<point x="242.42" y="637.599"/>
			<point x="308.897" y="637.607" type="curve" smooth="yes"/>
			<point x="340.659" y="637.611"/>
			<point x="418.405" y="637.616"/>
			<point x="450.167" y="637.616" type="curve" smooth="yes"/>
			<point x="488.237" y="637.616"/>
			<point x="496.12" y="622.561"/>
			<point x="496.12" y="580.863" type="curve"/>
			<point x="496.12" y="527.425" type="line"/>
		</contour>
	</outline>
</glyph>
<glyph name="W" format="2">
	<advance width="973"/>
	<unicode hex="0057"/>
	<guideline x="339" y="546" angle="0"/>
	<guideline x="-442" y="144" angle="0"/>
	<outline>
		<contour>
			<point x="947" y="757" type="line"/>
			<point x="830" y="757" type="line"/>
			<point x="726" y="81" type="line"/>
			<point x="769" y="126" type="line"/>
			<point x="670" y="126" type="line"/>
			<point x="728" y="82" type="line"/>
			<point x="584" y="733" type="line"/>
			<point x="397" y="733" type="line"/>
			<point x="245" y="82" type="line"/>
			<point x="302" y="126" type="line"/>
			<point x="201" y="126" type="line"/>
			<point x="246" y="81" type="line"/>
			<point x="150" y="756" type="line"/>
			<point x="26" y="756" type="line"/>
			<point x="124" y="0" type="line"/>
			<point x="339" y="0" type="line"/>
			<point x="487" y="643" type="line"/>
			<point x="431" y="599" type="line"/>
			<point x="538" y="599" type="line"/>
			<point x="478" y="642" type="line"/>
			<point x="619" y="0" type="line"/>
			<point x="834" y="0" type="line"/>
		</contour>
	</outline>
</glyph>
<glyph name="X" format="2">
	<advance width="722"/>
	<unicode hex="0058"/>
	<outline>
		<contour>
			<point x="7" y="0" type="line"/>
			<point x="155" y="0" type="line"/>
			<point x="340" y="310" type="line"/>
			<point x="383" y="310" type="line"/>
			<point x="560" y="0" type="line"/>
			<point x="715" y="0" type="line"/>
			<point x="468" y="428" type="line"/>
			<point x="468" y="331" type="line"/>
			<point x="703" y="756" type="line"/>
			<point x="555" y="756" type="line"/>
			<point x="380" y="434" type="line"/>
			<point x="337" y="434" type="line"/>
			<point x="174" y="756" type="line"/>
			<point x="19" y="756" type="line"/>
			<point x="236" y="331" type="line"/>
			<point x="252" y="428" type="line"/>
		</contour>
	</outline>
</glyph>
<glyph name="Y" format="2">
	<advance width="634"/>
	<unicode hex="0059"/>
	<guideline x="329" y="273" angle="0"/>
	<outline>
		<contour>
			<point x="-18" y="756" type="line"/>
			<point x="263" y="232" type="line"/>
			<point x="252" y="317" type="line"/>
			<point x="252" y="0" type="line"/>
			<point x="382" y="0" type="line"/>
			<point x="382" y="317" type="line"/>
			<point x="361" y="211" type="line"/>
			<point x="642" y="756" type="line"/>
			<point x="496" y="756" type="line"/>
			<point x="305" y="354" type="line"/>
			<point x="379" y="405" type="line"/>
			<point x="262" y="405" type="line"/>
			<point x="336" y="354" type="line"/>
			<point x="138" y="756" type="line"/>
		</contour>
	</outline>
</glyph>
<glyph name="Z" format="2">
	<advance width="667"/>
	<unicode hex="005A"/>
	<outline>
		<contour>
			<point x="592" y="0" type="line"/>
			<point x="592" y="121" type="line"/>
			<point x="193" y="121" type="line"/>
			<point x="193" y="144" type="line"/>
			<point x="592" y="559" type="line"/>
			<point x="592" y="754" type="line"/>
			<point x="82" y="754" type="line"/>
			<point x="82" y="643" type="line"/>
			<point x="456" y="643" type="line"/>
			<point x="456" y="617" type="line"/>
			<point x="56" y="200" type="line"/>
			<point x="56" y="0" type="line"/>
		</contour>
	</outline>
</glyph>
<glyph name="a" format="2">
	<advance width="632"/>
	<unicode hex="0061"/>
	<outline>
		<contour>
			<point x="426" y="284" type="line"/>
			<point x="548" y="284" type="line"/>
			<point x="548" y="396" type="line" smooth="yes"/>
			<point x="548" y="500"/>
			<point x="492" y="563"/>
			<point x="388" y="563" type="curve" smooth="yes"/>
			<point x="88" y="563" type="line"/>
			<point x="88" y="439" type="line"/>
			<point x="366" y="439" type="line" smooth="yes"/>
			<point x="405" y="439"/>
			<point x="426" y="418"/>
			<point x="426" y="379" type="curve" smooth="yes"/>
		</contour>
		<contour>
			<point x="444" y="0" type="line"/>
			<point x="548" y="0" type="line"/>
			<point x="548" y="284" type="line"/>
			<point x="426" y="284" type="line"/>
			<point x="427" y="195" type="line"/>
			<point x="443" y="125" type="line"/>
		</contour>
		<contour>
			<point x="449" y="336" type="line"/>
			<point x="186" y="336" type="line" smooth="yes"/>
			<point x="102" y="336"/>
			<point x="56" y="290"/>
			<point x="56" y="206" type="curve" smooth="yes"/>
			<point x="56" y="156" type="line" smooth="yes"/>
			<point x="56" y="52"/>
			<point x="112" y="-4"/>
			<point x="216" y="-4" type="curve" smooth="yes"/>
			<point x="271" y="-4" type="line" smooth="yes"/>
			<point x="359" y="-4"/>
			<point x="408" y="44"/>
			<point x="426" y="113" type="curve"/>
			<point x="509" y="113" type="line"/>
			<point x="427" y="212" type="line"/>
			<point x="427" y="122"/>
			<point x="378" y="113"/>
			<point x="333" y="113" type="curve" smooth="yes"/>
			<point x="231" y="113" type="line" smooth="yes"/>
			<point x="192" y="113"/>
			<point x="171" y="134"/>
			<point x="171" y="171" type="curve" smooth="yes"/>
			<point x="171" y="208"/>
			<point x="192" y="229"/>
			<point x="231" y="229" type="curve" smooth="yes"/>
			<point x="449" y="229" type="line"/>
		</contour>
	</outline>
</glyph>
<glyph name="c" format="2">
	<advance width="587"/>
	<unicode hex="0063"/>
	<outline>
		<contour>
			<point x="287" y="119" type="curve" smooth="yes"/>
			<point x="541" y="119" type="line"/>
			<point x="541" y="-3" type="line"/>
			<point x="254" y="-3" type="line" smooth="yes"/>
			<point x="127" y="-3"/>
			<point x="51" y="66"/>
			<point x="51" y="196" type="curve" smooth="yes"/>
			<point x="51" y="303" type="line" smooth="yes"/>
			<point x="51" y="462"/>
			<point x="141" y="566"/>
			<point x="283" y="566" type="curve" smooth="yes"/>
			<point x="542" y="566" type="line"/>
			<point x="542" y="442" type="line"/>
			<point x="287" y="442" type="line" smooth="yes"/>
			<point x="213" y="442"/>
			<point x="180" y="412"/>
			<point x="180" y="340" type="curve" smooth="yes"/>
			<point x="180" y="221" type="line" smooth="yes"/>
			<point x="180" y="149"/>
			<point x="213" y="119"/>
		</contour>
	</outline>
</glyph>
<glyph name="e" format="2">
	<advance width="648"/>
	<unicode hex="0065"/>
	<outline>
		<contour>
			<point x="254" y="-4" type="curve" smooth="yes"/>
			<point x="547" y="-4" type="line"/>
			<point x="547" y="119" type="line"/>
			<point x="288" y="119" type="line" smooth="yes"/>
			<point x="213" y="119"/>
			<point x="180" y="155"/>
			<point x="180" y="227" type="curve" smooth="yes"/>
			<point x="180" y="341" type="line" smooth="yes"/>
			<point x="180" y="413"/>
			<point x="213" y="449"/>
			<point x="288" y="449" type="curve" smooth="yes"/>
			<point x="366" y="449" type="line" smooth="yes"/>
			<point x="441" y="449"/>
			<point x="474" y="413"/>
			<point x="474" y="341" type="curve" smooth="yes"/>
			<point x="474" y="306" type="line"/>
			<point x="597" y="221" type="line"/>
			<point x="597" y="337" type="line" smooth="yes"/>
			<point x="597" y="503"/>
			<point x="514" y="566"/>
			<point x="380" y="566" type="curve" smooth="yes"/>
			<point x="287" y="566" type="line" smooth="yes"/>
			<point x="141" y="566"/>
			<point x="51" y="462"/>
			<point x="51" y="314" type="curve" smooth="yes"/>
			<point x="51" y="196" type="line" smooth="yes"/>
			<point x="51" y="68"/>
			<point x="127" y="-4"/>
		</contour>
		<contour>
			<point x="71" y="221" type="line"/>
			<point x="597" y="221" type="line"/>
			<point x="597" y="325" type="line"/>
			<point x="71" y="325" type="line"/>
		</contour>
	</outline>
</glyph>
<glyph name="g" format="2">
	<advance width="595"/>
	<unicode hex="0067"/>
	<outline>
		<contour>
			<point x="282" y="144" type="line"/>
			<point x="374" y="144" type="line" smooth="yes"/>
			<point x="488" y="144"/>
			<point x="550" y="202"/>
			<point x="550" y="322" type="curve" smooth="yes"/>
			<point x="550" y="629" type="line"/>
			<point x="441" y="629" type="line"/>
			<point x="441" y="399" type="line"/>
			<point x="466" y="487" type="line"/>
			<point x="425" y="487" type="line"/>
			<point x="425" y="545"/>
			<point x="382" y="566"/>
			<point x="312" y="566" type="curve" smooth="yes"/>
			<point x="225" y="566" type="line" smooth="yes"/>
			<point x="96" y="566"/>
			<point x="47" y="517"/>
			<point x="47" y="388" type="curve" smooth="yes"/>
			<point x="47" y="335" type="line" smooth="yes"/>
			<point x="47" y="211"/>
			<point x="112" y="168"/>
			<point x="282" y="168" type="curve"/>
		</contour>
		<contour>
			<point x="173" y="-33" type="curve" smooth="yes"/>
			<point x="414" y="-33" type="line" smooth="yes"/>
			<point x="440" y="-33"/>
			<point x="454" y="-46"/>
			<point x="454" y="-65" type="curve" smooth="yes"/>
			<point x="454" y="-83"/>
			<point x="440" y="-96"/>
			<point x="414" y="-96" type="curve" smooth="yes"/>
			<point x="78" y="-96" type="line"/>
			<point x="78" y="-210" type="line"/>
			<point x="444" y="-210" type="line" smooth="yes"/>
			<point x="520" y="-210"/>
			<point x="553" y="-177"/>
			<point x="553" y="-101" type="curve" smooth="yes"/>
			<point x="553" y="-27" type="line" smooth="yes"/>
			<point x="553" y="43"/>
			<point x="520" y="73"/>
			<point x="444" y="73" type="curve" smooth="yes"/>
			<point x="229" y="74" type="line" smooth="yes"/>
			<point x="201" y="74"/>
			<point x="189" y="85"/>
			<point x="189" y="110" type="curve" smooth="yes"/>
			<point x="189" y="135"/>
			<point x="201" y="144"/>
			<point x="228" y="144" type="curve" smooth="yes"/>
			<point x="310" y="144" type="line"/>
			<point x="302" y="194" type="line"/>
			<point x="205" y="194" type="line"/>
			<point x="205" y="160" type="line"/>
			<point x="173" y="160" type="line"/>
			<point x="103" y="160"/>
			<point x="71" y="123"/>
			<point x="71" y="63" type="curve" smooth="yes"/>
			<point x="71" y="-4"/>
			<point x="103" y="-33"/>
		</contour>
		<contour>
			<point x="171" y="321" type="curve" smooth="yes"/>
			<point x="171" y="391" type="line" smooth="yes"/>
			<point x="171" y="430"/>
			<point x="191" y="451"/>
			<point x="230" y="451" type="curve" smooth="yes"/>
			<point x="360" y="451" type="line" smooth="yes"/>
			<point x="399" y="451"/>
			<point x="420" y="430"/>
			<point x="420" y="391" type="curve" smooth="yes"/>
			<point x="420" y="321" type="line" smooth="yes"/>
			<point x="420" y="282"/>
			<point x="399" y="261"/>
			<point x="360" y="261" type="curve" smooth="yes"/>
			<point x="230" y="261" type="line" smooth="yes"/>
			<point x="191" y="261"/>
			<point x="171" y="282"/>
		</contour>
	</outline>
</glyph>
<glyph name="h" format="2">
	<advance width="643"/>
	<unicode hex="0068"/>
	<outline>
		<contour>
			<point x="51" y="778" type="line"/>
			<point x="51" y="0" type="line"/>
			<point x="177" y="0" type="line"/>
			<point x="177" y="362" type="line"/>
			<point x="161" y="432" type="line"/>
			<point x="160" y="778" type="line"/>
		</contour>
		<contour>
			<point x="332" y="436" type="curve" smooth="yes"/>
			<point x="402" y="436"/>
			<point x="436" y="402"/>
			<point x="436" y="323" type="curve" smooth="yes"/>
			<point x="436" y="0" type="line"/>
			<point x="559" y="0" type="line"/>
			<point x="559" y="380" type="line" smooth="yes"/>
			<point x="559" y="498"/>
			<point x="501" y="559"/>
			<point x="380" y="559" type="curve" smooth="yes"/>
			<point x="338" y="559" type="line" smooth="yes"/>
			<point x="237" y="559"/>
			<point x="201" y="507"/>
			<point x="181" y="432" type="curve"/>
			<point x="161" y="432" type="line"/>
			<point x="177" y="333" type="line"/>
			<point x="177" y="423"/>
			<point x="248" y="436"/>
		</contour>
	</outline>
</glyph>
<glyph name="l" format="2">
	<advance width="228"/>
	<unicode hex="006C"/>
	<outline>
		<contour>
			<point x="51" y="778" type="line"/>
			<point x="51" y="0" type="line"/>
			<point x="177" y="0" type="line"/>
			<point x="177" y="778" type="line"/>
		</contour>
	</outline>
</glyph>
<glyph name="m" format="2">
	<advance width="1011"/>
	<unicode hex="006D"/>
	<outline>
		<contour>
			<point x="86" y="556" type="line"/>
			<point x="86" y="0" type="line"/>
			<point x="212" y="0" type="line"/>
			<point x="212" y="329" type="line"/>
			<point x="196" y="432" type="line"/>
			<point x="196" y="556" type="line"/>
		</contour>
		<contour>
			<point x="343" y="436" type="curve" smooth="yes"/>
			<point x="415" y="436"/>
			<point x="447" y="403"/>
			<point x="447" y="329" type="curve" smooth="yes"/>
			<point x="447" y="0" type="line"/>
			<point x="570" y="0" type="line"/>
			<point x="570" y="380" type="line" smooth="yes"/>
			<point x="570" y="498"/>
			<point x="536" y="559"/>
			<point x="415" y="559" type="curve" smooth="yes"/>
			<point x="373" y="559" type="line" smooth="yes"/>
			<point x="272" y="559"/>
			<point x="232" y="507"/>
			<point x="212" y="432" type="curve"/>
			<point x="196" y="432" type="line"/>
			<point x="212" y="329" type="line"/>
			<point x="212" y="419"/>
			<point x="259" y="436"/>
		</contour>
		<contour>
			<point x="702" y="436" type="curve" smooth="yes"/>
			<point x="773" y="436"/>
			<point x="804" y="403"/>
			<point x="804" y="329" type="curve"/>
			<point x="804" y="0" type="line"/>
			<point x="927" y="0" type="line"/>
			<point x="927" y="380" type="line" smooth="yes"/>
			<point x="927" y="498"/>
			<point x="893" y="559"/>
			<point x="772" y="559" type="curve" smooth="yes"/>
			<point x="732" y="559" type="line" smooth="yes"/>
			<point x="631" y="559"/>
			<point x="591" y="507"/>
			<point x="571" y="432" type="curve"/>
			<point x="546" y="432" type="line"/>
			<point x="570" y="329" type="line"/>
			<point x="570" y="419"/>
			<point x="618" y="436"/>
		</contour>
	</outline>
</glyph>
<glyph name="q" format="2">
	<advance width="662"/>
	<unicode hex="0071"/>
	<guideline x="-41" y="0" angle="0"/>
	<guideline y="354"/>
	<outline>
		<contour>
			<point x="585" y="556" type="line"/>
			<point x="460" y="556" type="line"/>
			<point x="460" y="186" type="line"/>
			<point x="476" y="129" type="line"/>
			<point x="476" y="-211" type="line"/>
			<point x="585" y="-211" type="line"/>
		</contour>
		<contour>
			<point x="204" y="354.264" type="curve" smooth="yes"/>
			<point x="204" y="414.391"/>
			<point x="234.767" y="439"/>
			<point x="294.696" y="439" type="curve"/>
			<point x="467" y="439" type="line"/>
			<point x="498" y="556" type="line"/>
			<point x="498" y="556"/>
			<point x="407" y="556"/>
			<point x="270" y="556" type="curve" smooth="yes"/>
			<point x="133" y="556"/>
			<point x="81" y="481"/>
			<point x="81" y="374" type="curve" smooth="yes"/>
			<point x="81" y="175" type="line" smooth="yes"/>
			<point x="81" y="50"/>
			<point x="150" y="-6"/>
			<point x="260" y="-4" type="curve"/>
			<point x="302" y="-4" type="line"/>
			<point x="403" y="-4"/>
			<point x="439" y="48"/>
			<point x="459" y="123" type="curve"/>
			<point x="490" y="123" type="line"/>
			<point x="460" y="222" type="line"/>
			<point x="460" y="132"/>
			<point x="421" y="120"/>
			<point x="342" y="120" type="curve" smooth="yes"/>
			<point x="294.698" y="120" type="line" smooth="yes"/>
			<point x="234.869" y="120"/>
			<point x="204" y="139.337"/>
			<point x="204" y="199.843" type="curve" smooth="yes"/>
			<point x="204" y="221.351"/>
			<point x="204" y="352.904"/>
		</contour>
	</outline>
</glyph>
<glyph name="r" format="2">
	<advance width="469"/>
	<unicode hex="0072"/>
	<outline>
		<contour>
			<point x="86" y="556" type="line"/>
			<point x="86" y="0" type="line"/>
			<point x="212" y="0" type="line"/>
			<point x="212" y="362" type="line"/>
			<point x="195" y="432" type="line"/>
			<point x="195" y="556" type="line"/>
		</contour>
		<contour>
			<point x="434" y="432" type="line"/>
			<point x="434" y="563" type="line"/>
			<point x="361" y="563" type="line" smooth="yes"/>
			<point x="262" y="563"/>
			<point x="234" y="513"/>
			<point x="212" y="432" type="curve"/>
			<point x="131" y="432" type="line"/>
			<point x="212" y="330" type="line"/>
			<point x="212" y="402"/>
			<point x="245" y="432"/>
			<point x="320" y="432" type="curve" smooth="yes"/>
		</contour>
	</outline>
</glyph>
<glyph name="t" format="2">
	<advance width="452"/>
	<unicode hex="0074"/>
	<outline>
		<contour>
			<point x="35" y="556" type="line"/>
			<point x="35" y="451" type="line"/>
			<point x="412" y="451" type="line"/>
			<point x="412" y="556" type="line"/>
		</contour>
		<contour>
			<point x="126" y="674" type="line"/>
			<point x="126" y="136" type="line" smooth="yes"/>
			<point x="126" y="42"/>
			<point x="172" y="-4"/>
			<point x="266" y="-4" type="curve" smooth="yes"/>
			<point x="401" y="-4" type="line"/>
			<point x="401" y="120" type="line"/>
			<point x="312" y="120" type="line" smooth="yes"/>
			<point x="273" y="120"/>
			<point x="252" y="141"/>
			<point x="252" y="180" type="curve" smooth="yes"/>
			<point x="252" y="674" type="line"/>
		</contour>
	</outline>
</glyph>
<glyph name="tildecomb" format="2">
	<advance width="0"/>
	<unicode hex="0303"/>
	<anchor x="-2" y="842" name="top"/>
	<anchor x="-2" y="556" name="_top"/>
	<outline>
		<contour>
			<point x="-81" y="677" type="line"/>
			<point x="-97" y="677"/>
			<point x="-106" y="670"/>
			<point x="-107" y="626" type="curve"/>
			<point x="-215" y="626" type="line"/>
			<point x="-244" y="743"/>
			<point x="-193" y="791"/>
			<point x="-106" y="791" type="curve" smooth="yes"/>
			<point x="78" y="791" type="line"/>
			<point x="94" y="791"/>
			<point x="103" y="798"/>
			<point x="103" y="842" type="curve"/>
			<point x="211" y="842" type="line"/>
			<point x="241" y="724"/>
			<point x="190" y="677"/>
			<point x="103" y="677" type="curve"/>
		</contour>
	</outline>
</glyph>
<glyph name="dieresiscomb" format="2">
	<advance width="0"/>
	<unicode hex="0308"/>
	<anchor x="0" y="756" name="top"/>
	<anchor x="0" y="556" name="_top"/>
	<outline>
		<contour>
			<point x="-200" y="760" type="line"/>
			<point x="-200" y="640" type="line"/>
			<point x="-80" y="640" type="line"/>
			<point x="-80" y="760" type="line"/>
		</contour>
		<contour>
			<point x="80" y="760" type="line"/>
			<point x="80" y="640" type="line"/>
			<point x="200" y="640" type="line"/>
			<point x="200" y="760" type="line"/>
		</contour>
	</outline>
</glyph>
<glyph name="nine.001" format="2">
	<advance width="714"/>
	<outline>
		<contour>
			<point x="260" y="296" type="curve"/>
			<point x="453" y="295" type="line" smooth="yes"/>
			<point x="573" y="294"/>
			<point x="639" y="346"/>
			<point x="639" y="457" type="curve" smooth="yes"/>
			<point x="639" y="596" type="line" smooth="yes"/>
			<point x="639" y="707"/>
			<point x="573" y="756"/>
			<point x="453" y="756" type="curve" smooth="yes"/>
			<point x="260" y="756" type="line" smooth="yes"/>
			<point x="140" y="756"/>
			<point x="77" y="707"/>
			<point x="77" y="596" type="curve" smooth="yes"/>
			<point x="77" y="456" type="line" smooth="yes"/>
			<point x="77" y="345"/>
			<point x="140" y="296"/>
		</contour>
		<contour>
			<point x="272" y="631" type="curve"/>
			<point x="504" y="631" type="line"/>
			<point x="503" y="484" type="line" smooth="yes"/>
			<point x="503" y="437"/>
			<point x="480" y="420"/>
			<point x="429" y="420" type="curve" smooth="yes"/>
			<point x="199" y="420" type="line"/>
			<point x="198" y="567" type="line" smooth="yes"/>
			<point x="198" y="614"/>
			<point x="221" y="631"/>
		</contour>
		<contour>
			<point x="503" y="460" type="line"/>
			<point x="503" y="127" type="line"/>
			<point x="114" y="127" type="line"/>
			<point x="114" y="0" type="line"/>
			<point x="434" y="0" type="line" smooth="yes"/>
			<point x="572" y="0"/>
			<point x="639" y="71"/>
			<point x="639" y="230" type="curve"/>
			<point x="639" y="460" type="line"/>
		</contour>
	</outline>
</glyph>
